# xmcd CD database file
# Copyright (C) 1993-2000  Ti Kan
#
# Track frame offsets:
#	900
#	22650
#	34875
#	56550
#	92025
#	106050
#	117825
#	127350
#	149775
#	168450
#	194550
#	220350
#	243450
#
# Disc length: 3485 seconds
#
# Revision: 1
# Processed by: cddbd v1.5.2PL0 Copyright (c) Steve Scherf et al.
# Submitted via: xmcd 2.6 PL0
#
DISCID=c40d910d
DTITLE=Status Quo - Live At Montreux
DYEAR=1900
DGENRE=
TTITLE0=Caroline
TTITLE1=The Wanderer
TTITLE2=Rain
TTITLE3=Proposin' Medley
TTITLE4=Big Fat Mama
TTITLE5=Pictures Of Matchstick Men
TTITLE6=Ice In The Sun
TTITLE7=The Oriental
TTITLE8=In The Army Now
TTITLE9=Roll Over Lay Down
TTITLE10=Down Down
TTITLE11=Whatever You Want
TTITLE12=Rockin' All Over The World
EXTD=
EXTT0=
EXTT1=
EXTT2=
EXTT3=
EXTT4=
EXTT5=
EXTT6=
EXTT7=
EXTT8=
EXTT9=
EXTT10=
EXTT11=
EXTT12=
PLAYORDER=
